<?xml version="1.0"?>
<svg xmlns="http://www.w3.org/2000/svg" viewBox="0 0 512 512" width="512" height="512"><g id="outline"><circle cx="224" cy="184" r="8"/><circle cx="288" cy="184" r="8"/><path d="M236.422,255.155a43.989,43.989,0,0,0,39.156,0,8,8,0,1,0-7.156-14.31,27.917,27.917,0,0,1-24.844,0,8,8,0,1,0-7.156,14.31Z"/><path d="M112,416a24,24,0,1,0-24-24A24.027,24.027,0,0,0,112,416Zm0-32a8,8,0,1,1-8,8A8.009,8.009,0,0,1,112,384Z"/><path d="M488,376H416a31.793,31.793,0,0,0-16,4.305V328a56.334,56.334,0,0,0-42.922-54.419A30.655,30.655,0,0,0,329.381,256h-5.507A71.66,71.66,0,0,0,328,232V216h4a28,28,0,0,0,0-56h-4V120a40.045,40.045,0,0,0-40-40H168a8,8,0,0,0-7.891,9.315l5.772,34.63A23.9,23.9,0,0,0,184,143.335V160h-4a28,28,0,0,0,0,56h4v16a71.66,71.66,0,0,0,4.126,24H182.64a30.691,30.691,0,0,0-27.663,17.569A56.421,56.421,0,0,0,112.59,320H24a8,8,0,0,0-8,8V456a7.957,7.957,0,0,0,.711,3.285A15.936,15.936,0,0,0,16,464v16a16.019,16.019,0,0,0,16,16H480a16.019,16.019,0,0,0,16-16V464a15.923,15.923,0,0,0-4.077-10.633A23.863,23.863,0,0,0,496,440V384A8,8,0,0,0,488,376Zm-8,64a8.009,8.009,0,0,1-8,8H440a8.009,8.009,0,0,1-8-8V392h48Zm-280,8V432h16.82c-.536,2.619-.82,16-.82,16Zm152-32a8,8,0,0,0,0-16H336V368h48v56a24.028,24.028,0,0,1-24,24H232v-8a23.644,23.644,0,0,1,3.015-11.593A23.917,23.917,0,0,1,256,416Zm46.513,18.779A31.8,31.8,0,0,0,416,440a23.885,23.885,0,0,0,1.376,8h-25.4A39.9,39.9,0,0,0,398.513,434.779ZM416,392v32a16,16,0,0,1,0-32Zm-32-64v24H328a8,8,0,0,0-8,8v40H256a39.929,39.929,0,0,0-31.985,16H200V344h8a8,8,0,0,0,7.8-6.255,63.8,63.8,0,0,0,80.394,0A8,8,0,0,0,304,344h25.381A30.653,30.653,0,0,0,360,313.381v-22A40.254,40.254,0,0,1,384,328Zm-88-13.541a47.909,47.909,0,0,1-80,0V291.844a71.889,71.889,0,0,0,80,0Zm48-27.84v26.762A14.635,14.635,0,0,1,329.381,328H312V272h17.381A14.635,14.635,0,0,1,344,286.619ZM259.354,208.04l-1.62-1.62,5.421-10.842a8,8,0,1,0-14.31-7.156l-8,16a7.973,7.973,0,0,0-.647,5.251,61.942,61.942,0,0,0-23.843,11.369L200,204.687V178.806L227.845,144h56.31L312,178.806v25.881l-16.355,16.355A62.089,62.089,0,0,0,259.354,208.04Zm-52-64.04L200,153.194V144ZM312,153.194,304.645,144H312ZM332,176a12,12,0,0,1,0,24h-4V176ZM181.663,121.315,177.444,96H288a24.027,24.027,0,0,1,24,24v8H189.554A7.976,7.976,0,0,1,181.663,121.315ZM180,200a12,12,0,0,1,0-24h4v24Zm20,32v-4.687l10.343,10.344a8,8,0,0,0,11.314,0A46.32,46.32,0,0,1,254.627,224h2.746a46.32,46.32,0,0,1,32.97,13.657,8,8,0,0,0,11.314,0L312,227.313V232a55.277,55.277,0,0,1-5.436,24H304a8,8,0,0,0-8,8v7.16c-.958.979-1.941,1.933-2.963,2.833a55.969,55.969,0,0,1-74.072,0c-1.024-.9-2.007-1.855-2.965-2.834V264a8,8,0,0,0-8-8h-2.564A55.277,55.277,0,0,1,200,232Zm-32,54.64a13.889,13.889,0,0,1,.56-3.84c.01-.034.02-.068.029-.1A14.631,14.631,0,0,1,182.64,272H200v56a8,8,0,0,0-8-8H169.643A14.414,14.414,0,0,1,168,313.36Zm-16,4.745V313.36a30.294,30.294,0,0,0,.739,6.64H128.831A40.4,40.4,0,0,1,152,291.385ZM32,336H184V448H32ZM480,480H32V464H480l.01,16Z"/><path d="M424,360h16c0-4.5,1.734-6.42,5.657-10.343C450.022,345.292,456,339.314,456,328s-5.978-17.292-10.343-21.657C441.734,302.42,440,300.5,440,296H424c0,11.314,5.978,17.292,10.343,21.657C438.266,321.58,440,323.5,440,328s-1.734,6.42-5.657,10.343C429.978,342.708,424,348.686,424,360Z"/><path d="M480,296H464c0,11.314,5.978,17.292,10.343,21.657C478.266,321.58,480,323.5,480,328s-1.734,6.42-5.657,10.343C469.978,342.708,464,348.686,464,360h16c0-4.5,1.734-6.42,5.657-10.343C490.022,345.292,496,339.314,496,328s-5.978-17.292-10.343-21.657C481.734,302.42,480,300.5,480,296Z"/><path d="M492.817,17.613a8,8,0,0,0-7.015-1.3l-56,16A8,8,0,0,0,424,40V88h-8a24,24,0,1,0,24,24V78.035l40-11.429V88h-8a24,24,0,1,0,24,24V24A8,8,0,0,0,492.817,17.613ZM424,112a8,8,0,1,1-8-8h8Zm56,0a8,8,0,1,1-8-8h8Zm0-62.034L440,61.394V46.034l40-11.428v15.36Z"/><path d="M40,240a24.027,24.027,0,0,0,24-24V165.766l18.53-6.177a8,8,0,0,0-5.06-15.178l-24,8A8,8,0,0,0,48,160v32H40a24,24,0,0,0,0,48Zm0-32h8v8a8,8,0,1,1-8-8Z"/><path d="M408,248a24.027,24.027,0,0,0,24-24V173.766l18.53-6.177a8,8,0,0,0-5.06-15.178l-24,8A8,8,0,0,0,416,168v32h-8a24,24,0,0,0,0,48Zm0-32h8v8a8,8,0,1,1-8-8Z"/></g></svg>
